<?xml version="1.0" encoding="utf-8"?>
<!-- Generator: Adobe Illustrator 26.3.1, SVG Export Plug-In . SVG Version: 6.00 Build 0)  -->
<svg version="1.1" id="Layer_1" xmlns="http://www.w3.org/2000/svg" xmlns:xlink="http://www.w3.org/1999/xlink" x="0px" y="0px"
	 viewBox="0 0 500 96.4" style="enable-background:new 0 0 500 96.4;" xml:space="preserve">
<style type="text/css">
	.st0{fill:#A2CDE8;}
	.st1{fill:#7BB8DD;}
	.st2{fill:#56A0D3;}
	.st3{fill:#4B8CB8;}
	.st4{fill:#386C8F;}
</style>
<path class="st0" d="M500,24.5v16.6l-53.9-3.9h0l-52.2-3.8l-119.5,7.6l-105.8,22l-17.6-2.2l-65.8-8.1l-75-12.2L0,38.9V3
	c0,0,69.9,52.9,200.1,22.4C330.3-5.1,421.2-1.9,500,24.5z"/>
<path class="st1" d="M500,38.4v18l-28.8-2.2h0l-78.4-6.1L272,56.4L165.1,80.2l-25.6-3.4h0L80.8,69L11.1,56.8h0L0,54.9V18.7
	c18.6,12.2,86.2,48.5,196.9,20.6C328.5,6.2,420.4,9.6,500,38.4z"/>
<path class="st2" d="M500,51.6v17.9l-23.9-1.8h0c-75.5-18.3-163.5-15.9-281.2,14.2c-8.4,2.1-16.5,3.9-24.4,5.4
	c-7.9,1.5-15.6,2.6-23,3.5h0L78,81.9L0.3,68.8h0l-0.3,0V35.1c2.8,1.6,6.2,3.5,10.2,5.5c24.5,12,72,28.2,140.8,20.4
	c13.9-1.6,28.6-4.2,44.2-8c103.6-25.2,182.9-28.7,250.9-15.7h0C464.8,40.8,482.7,45.6,500,51.6z"/>
<path class="st3" d="M500,62.4v12h0c-7.8-2.4-15.8-4.7-23.9-6.6h0c-75.5-18.3-163.5-15.9-281.2,14.2c-8.4,2.1-16.5,3.9-24.4,5.4
	c-7.9,1.5-15.6,2.6-23,3.5h0c-71.3,8.5-121-8.8-147.2-22.1h0l-0.3,0V51.2c3.2,1.8,6.9,3.6,11,5.6h0c0,0,0,0,0,0h0
	c25.1,11.7,68.3,25.1,128.3,20h0c17.4-1.5,36.2-4.5,56.4-9.6c115.4-29,201.5-31.1,275.3-13.1h0C481,56.5,490.6,59.3,500,62.4z"/>
<path class="st4" d="M0,68.6c0.1,0,0.2,0.1,0.3,0.1L0,68.6L0,68.6z"/>
<path class="st4" d="M5,113.6c-1.7-1.6-3.4-3.2-5-4.8v-0.6L5,113.6z"/>
</svg>
